<svg width="110" height="169" viewBox="0 0 110 169" fill="none" xmlns="http://www.w3.org/2000/svg">
<mask id="mask0_519_1551" style="mask-type:alpha" maskUnits="userSpaceOnUse" x="0" y="0" width="110" height="169">
<rect x="110" y="169" width="110" height="169" transform="rotate(180 110 169)" fill="white"/>
</mask>
<g mask="url(#mask0_519_1551)">
<circle cx="97.5" cy="160.5" r="1.5" transform="rotate(180 97.5 160.5)" fill="black"/>
<circle cx="59.5" cy="160.5" r="1.5" transform="rotate(180 59.5 160.5)" fill="black"/>
<circle cx="21.5" cy="160.5" r="1.5" transform="rotate(180 21.5 160.5)" fill="black"/>
<circle cx="97.5" cy="122.5" r="1.5" transform="rotate(180 97.5 122.5)" fill="black"/>
<circle cx="59.5" cy="122.5" r="1.5" transform="rotate(180 59.5 122.5)" fill="black"/>
<circle cx="21.5" cy="122.5" r="1.5" transform="rotate(180 21.5 122.5)" fill="black"/>
<circle cx="97.5" cy="84.5" r="1.5" transform="rotate(180 97.5 84.5)" fill="black"/>
<circle cx="59.5" cy="84.5" r="1.5" transform="rotate(180 59.5 84.5)" fill="black"/>
<circle cx="21.5" cy="84.5" r="1.5" transform="rotate(180 21.5 84.5)" fill="black"/>
<circle cx="97.5" cy="46.5" r="1.5" transform="rotate(180 97.5 46.5)" fill="black"/>
<circle cx="59.5" cy="46.5" r="1.5" transform="rotate(180 59.5 46.5)" fill="black"/>
<circle cx="21.5" cy="46.5" r="1.5" transform="rotate(180 21.5 46.5)" fill="black"/>
<circle cx="97.5" cy="8.5" r="1.5" transform="rotate(180 97.5 8.5)" fill="black"/>
<circle cx="59.5" cy="8.5" r="1.5" transform="rotate(180 59.5 8.5)" fill="black"/>
<circle cx="21.5" cy="8.5" r="1.5" transform="rotate(180 21.5 8.5)" fill="black"/>
</g>
</svg>
